{"title":"Et.Si.On.Vivait.Tous.Ensemble.2011.BRRip.AC3.HORiZON-ArtSubs","uid":7849674,"size":1573076992,"categoryP":"video","categoryS":"movies","magnet":"?xt=urn:btih:f41b376c827321be555eab534a053deb2a319ad2&amp;dn=Et.Si.On.Vivait.Tous.Ensemble.2011.BRRip.AC3.HORiZON-ArtSubs&amp;tr=udp%3A%2F%2Ftracker.openbittorrent.com%3A80&amp;tr=udp%3A%2F%2Fopen.demonii.com%3A1337&amp;tr=udp%3A%2F%2Ftracker.coppersurfer.tk%3A6969&amp;tr=udp%3A%2F%2Fexodus.desync.com%3A6969","seeders":22,"leechers":0,"uploader":"artsubs","files":-1,"time":1353572789,"description":"Title: Et si on vivait tous ensemble? aka All Together\n\nPlot: Annie, Jean, Claude, Albert and Jeanne have been friends for over forty years. But they are growing old and old age tends to be synonymous with reduced autonomy, loss of memory, illness, retirement home and, worst of all, separation. One day, one of the five friends suggests to say no to isolation and loneliness: what if they lived together?\n\nAudio: French\n\nIMDB: http://www.imdb.com/title/tt1674057/\n\n\nGeneral\nComplete name                    : Et.Si.On.Vivait.Tous.Ensemble.2011.BRRip.AC3.HORiZON-ArtSubs\nFormat                           : AVI\nFormat/Info                      : Audio Video Interleave\nFile size                        : 1.47 GiB\nDuration                         : 1h 35mn\nOverall bit rate                 : 2 189 Kbps\nWriting application              : FairUse Wizard - http://fairusewizard.com\nWriting library                  : The best and REALLY easy backup tool\n\nVideo\nID                               : 0\nFormat                           : MPEG-4 Visual\nFormat profile                   : Advanced Simple@L5\nFormat settings, BVOP            : Yes\nFormat settings, QPel            : No\nFormat settings, GMC             : No warppoints\nFormat settings, Matrix          : Default (H.263)\nMuxing mode                      : Packed bitstream\nCodec ID                         : XVID\nCodec ID/Hint                    : XviD\nDuration                         : 1h 35mn\nBit rate                         : 1 731 Kbps\nWidth                            : 688 pixels\nHeight                           : 368 pixels\nDisplay aspect ratio             : 1.870\nFrame rate                       : 23.976 fps\nColor space                      : YUV\nChroma subsampling               : 4:2:0\nBit depth                        : 8 bits\nScan type                        : Progressive\nCompression mode                 : Lossy\nBits/(Pixel*Frame)               : 0.285\nStream size                      : 1.16 GiB (79%)\nWriting library                  : XviD 1.1.0 (UTC 2005-11-22)\n\nAudio\nID                               : 1\nFormat                           : AC-3\nFormat/Info                      : Audio Coding 3\nMode extension                   : CM (complete main)\nCodec ID                         : 2000\nDuration                         : 1h 35mn\nBit rate mode                    : Constant\nBit rate                         : 448 Kbps\nChannel(s)                       : 6 channels\nChannel positions                : Front: L C R, Side: L R, LFE\nSampling rate                    : 48.0 KHz\nBit depth                        : 16 bits\nCompression mode                 : Lossy\nStream size                      : 307 MiB (20%)\nAlignment                        : Split accross interleaves\nInterleave, duration             : 42 ms (1.00 video frame)\nInterleave, preload duration     : 500 ms\n","torrent":{"xt":"urn:btih:f41b376c827321be555eab534a053deb2a319ad2","amp;dn":"Et.Si.On.Vivait.Tous.Ensemble.2011.BRRip.AC3.HORiZON-ArtSubs","amp;tr":["udp%3A%2F%2Ftracker.openbittorrent.com%3A80","udp%3A%2F%2Fopen.demonii.com%3A1337","udp%3A%2F%2Ftracker.coppersurfer.tk%3A6969","udp%3A%2F%2Fexodus.desync.com%3A6969"],"infoHash":"f41b376c827321be555eab534a053deb2a319ad2","infoHashBuffer":{"type":"Buffer","data":[244,27,55,108,130,115,33,190,85,94,171,83,74,5,61,235,42,49,154,210]},"announce":[],"urlList":[]}}